<svg width="145" height="22" viewBox="0 0 145 22" fill="none" xmlns="http://www.w3.org/2000/svg">
<path d="M59.9883 1.14453C60.6633 1.14453 61.2105 1.69174 61.2105 2.36675V3.66539C61.2105 4.82672 62.678 5.33344 63.3945 4.41956L65.5955 1.61259C65.8272 1.31712 66.1819 1.14453 66.5573 1.14453H71.4959C72.509 1.14453 73.0823 2.3064 72.4658 3.11042L68.1278 8.76835C67.8137 9.17798 67.7908 9.74075 68.0706 10.1745L73.7448 18.9714C74.2694 19.7847 73.6856 20.8562 72.7177 20.8562H66.6598C66.2277 20.8562 65.8276 20.6279 65.6077 20.2559L62.2473 14.5713C62.0658 14.2644 61.6205 14.2681 61.4441 14.5779C61.4043 14.6479 61.3833 14.7271 61.3833 14.8076V19.6339C61.3833 20.3089 60.8361 20.8562 60.1611 20.8562H54.6197C53.9447 20.8562 53.3975 20.309 53.3975 19.6339V2.36675C53.3975 1.69174 53.9447 1.14453 54.6197 1.14453H59.9883Z" fill="#353535"/>
<path d="M51.3999 19.6339C51.3999 20.309 50.8527 20.8562 50.1777 20.8562H44.9449C44.2699 20.8562 43.7227 20.309 43.7227 19.6339V2.36675C43.7227 1.69174 44.2699 1.14453 44.9449 1.14453H50.1777C50.8527 1.14453 51.3999 1.69174 51.3999 2.36675V19.6339Z" fill="#353535"/>
<path d="M28.4445 8.9563C28.9323 8.14164 28.3454 7.10616 27.3959 7.10616H23.9737C23.2987 7.10616 22.7515 6.55895 22.7515 5.88393V2.36675C22.7515 1.69174 23.2987 1.14453 23.9737 1.14453H40.7797C41.4299 1.14453 41.957 1.67165 41.957 2.32188C41.957 2.53677 41.8982 2.74756 41.787 2.9314L35.4762 13.3605C34.9834 14.175 35.5699 15.2154 36.5219 15.2154H40.7348C41.4098 15.2154 41.957 15.7627 41.957 16.4377V19.6339C41.957 20.309 41.4098 20.8562 40.7348 20.8562H22.8881C22.3968 20.8562 21.9985 20.4579 21.9985 19.9666C21.9985 19.8056 22.0422 19.6477 22.1249 19.5096L28.4445 8.9563Z" fill="#353535"/>
<path d="M6.44595 8.9563C6.93378 8.14164 6.34691 7.10616 5.39736 7.10616H1.97514C1.30012 7.10616 0.752918 6.55895 0.752918 5.88393V2.36675C0.752918 1.69174 1.30013 1.14453 1.97514 1.14453H18.7811C19.4314 1.14453 19.9585 1.67165 19.9585 2.32188C19.9585 2.53677 19.8997 2.74756 19.7884 2.9314L13.4777 13.3605C12.9848 14.175 13.5713 15.2154 14.5234 15.2154H18.7363C19.4113 15.2154 19.9585 15.7627 19.9585 16.4377V19.6339C19.9585 20.309 19.4113 20.8562 18.7363 20.8562H0.889566C0.398272 20.8562 0 20.4579 0 19.9666C0 19.8056 0.0436765 19.6477 0.126374 19.5096L6.44595 8.9563Z" fill="#353535"/>
<path d="M85.7312 0.619545C85.8099 0.406727 86.111 0.406728 86.1897 0.619546L88.8924 7.92359C88.9172 7.9905 88.97 8.04325 89.0369 8.06801L96.3409 10.7707C96.5537 10.8495 96.5537 11.1505 96.3409 11.2293L89.0369 13.932C88.97 13.9568 88.9172 14.0095 88.8924 14.0764L86.1897 21.3805C86.111 21.5933 85.8099 21.5933 85.7312 21.3805L83.0285 14.0764C83.0037 14.0095 82.9509 13.9568 82.884 13.932L75.58 11.2293C75.3672 11.1505 75.3672 10.8495 75.58 10.7707L82.884 8.06801C82.9509 8.04325 83.0037 7.9905 83.0285 7.92359L85.7312 0.619545Z" fill="#12ED4E"/>
<path d="M105.776 11.418C106.355 11.418 106.826 11.236 107.19 10.872C107.564 10.4987 107.75 10.0227 107.75 9.444C107.75 8.87467 107.564 8.408 107.19 8.044C106.817 7.67067 106.341 7.484 105.762 7.484H103.438V11.418H105.776ZM102.122 6.322H105.818C106.444 6.322 106.999 6.45733 107.484 6.728C107.979 6.98933 108.362 7.358 108.632 7.834C108.912 8.30067 109.052 8.83733 109.052 9.444C109.052 10.0507 108.912 10.592 108.632 11.068C108.362 11.544 107.979 11.9173 107.484 12.188C106.999 12.4493 106.444 12.58 105.818 12.58H103.438V16.57H102.122V6.322ZM112.633 16.654C112.026 16.654 111.485 16.514 111.009 16.234C110.533 15.9447 110.159 15.548 109.889 15.044C109.627 14.54 109.497 13.966 109.497 13.322C109.497 12.6873 109.627 12.118 109.889 11.614C110.159 11.1007 110.533 10.704 111.009 10.424C111.485 10.1347 112.026 9.99 112.633 9.99C112.987 9.99 113.337 10.0787 113.683 10.256C114.037 10.4333 114.345 10.6947 114.607 11.04V9.976H115.937V16.584H114.607V15.604C114.345 15.9587 114.042 16.2247 113.697 16.402C113.351 16.57 112.997 16.654 112.633 16.654ZM110.827 13.322C110.827 13.9753 110.999 14.5027 111.345 14.904C111.69 15.3053 112.143 15.506 112.703 15.506C113.039 15.506 113.351 15.4127 113.641 15.226C113.939 15.0393 114.177 14.778 114.355 14.442C114.532 14.106 114.621 13.7327 114.621 13.322C114.621 12.9113 114.532 12.5427 114.355 12.216C114.177 11.88 113.939 11.6187 113.641 11.432C113.351 11.236 113.039 11.138 112.703 11.138C112.143 11.138 111.69 11.3387 111.345 11.74C110.999 12.1413 110.827 12.6687 110.827 13.322ZM117.09 9.976H118.42V11.012C118.644 10.676 118.947 10.41 119.33 10.214C119.722 10.018 120.123 9.92467 120.534 9.934V11.18C120.151 11.1707 119.796 11.264 119.47 11.46C119.143 11.6467 118.886 11.9033 118.7 12.23C118.513 12.5567 118.42 12.902 118.42 13.266V16.584H117.09V9.976ZM122.416 11.124H121.184V9.976H122.416V7.666H123.732V9.976H125.3V11.124H123.732V16.584H122.416V11.124ZM130.679 12.86C130.679 12.3373 130.543 11.922 130.273 11.614C130.002 11.2967 129.638 11.138 129.181 11.138C128.695 11.1473 128.289 11.32 127.963 11.656C127.645 11.9827 127.491 12.384 127.501 12.86V16.584H126.171V9.976H127.501V10.914C127.715 10.634 127.986 10.41 128.313 10.242C128.649 10.074 128.98 9.99 129.307 9.99C129.773 9.99 130.212 10.0973 130.623 10.312C131.033 10.5173 131.365 10.8347 131.617 11.264C131.878 11.684 132.009 12.1973 132.009 12.804V16.584H130.679V12.86ZM136.151 16.626C135.535 16.626 134.985 16.486 134.499 16.206C134.023 15.926 133.65 15.534 133.379 15.03C133.109 14.526 132.973 13.952 132.973 13.308C132.973 12.664 133.109 12.09 133.379 11.586C133.65 11.082 134.023 10.69 134.499 10.41C134.985 10.1207 135.535 9.976 136.151 9.976C136.758 9.976 137.262 10.102 137.663 10.354C138.065 10.606 138.354 10.8673 138.531 11.138C138.718 11.4087 138.835 11.6187 138.881 11.768C139.077 12.244 139.175 12.7713 139.175 13.35C139.175 13.49 139.171 13.6067 139.161 13.7C139.152 13.784 139.147 13.8307 139.147 13.84H134.303C134.387 14.316 134.602 14.708 134.947 15.016C135.302 15.324 135.703 15.478 136.151 15.478C136.665 15.478 137.057 15.38 137.327 15.184C137.607 14.9787 137.803 14.778 137.915 14.582L138.965 15.086C138.779 15.506 138.443 15.87 137.957 16.178C137.481 16.4767 136.879 16.626 136.151 16.626ZM137.887 12.762C137.822 12.2673 137.649 11.8707 137.369 11.572C137.089 11.2733 136.683 11.124 136.151 11.124C135.685 11.124 135.279 11.278 134.933 11.586C134.597 11.8847 134.387 12.2767 134.303 12.762H137.887ZM140.115 9.976H141.445V11.012C141.669 10.676 141.973 10.41 142.355 10.214C142.747 10.018 143.149 9.92467 143.559 9.934V11.18C143.177 11.1707 142.822 11.264 142.495 11.46C142.169 11.6467 141.912 11.9033 141.725 12.23C141.539 12.5567 141.445 12.902 141.445 13.266V16.584H140.115V9.976Z" fill="#3C8EEE"/>
</svg>
