<svg width="76" height="76" viewBox="0 0 76 76" fill="none" xmlns="http://www.w3.org/2000/svg">
<rect x="0.203125" y="0.332031" width="75.6" height="75.6" rx="10.8" fill="#222223"/>
<path d="M30.0343 28.9361L39.6656 18.3945H20.5897C18.0014 18.3945 15.8984 20.7566 15.8984 23.659C15.8984 26.5614 18.0014 28.9235 20.5897 28.9235H30.0343V28.9361Z" fill="white"/>
<path d="M54.3496 24.3406V24.2275V24.1144C54.3496 23.9636 54.3745 23.8254 54.3745 23.6747C54.3745 20.7723 52.2715 18.4102 49.6833 18.4102H48.6256C47.1199 18.4102 45.6889 19.0635 44.6063 20.2446L21.2124 45.8383C18.8979 48.3763 18.8979 52.4975 21.2124 55.0229C22.295 56.204 23.726 56.8573 25.2317 56.8573C26.7374 56.8573 28.1684 56.204 29.251 55.0229L52.6448 29.4292C53.8519 28.0973 54.4741 26.2504 54.3496 24.3531V24.3406Z" fill="white"/>
<path d="M48.7013 37.4141C48.7013 46.9253 43.5995 52.0768 34.1797 52.0768C43.5995 52.0768 48.7013 57.2282 48.7013 66.7395C48.7013 57.2282 53.8032 52.0768 63.2229 52.0768C53.8032 52.0768 48.7013 46.9253 48.7013 37.4141Z" fill="#00FF46"/>
</svg>
