<svg width="1920" height="701" viewBox="0 0 1920 701" fill="none" xmlns="http://www.w3.org/2000/svg">
<g style="mix-blend-mode:overlay" opacity="0.55">
<path d="M2661.43 670.107C2272.3 684.483 1320.11 657.17 1123.34 432.913C1119.67 336.119 1175.1 123.267 1426.2 46.2144C1506.96 25.6094 1654.82 37.3284 1460.99 250.085C1218.7 516.03 385.463 639.92 0.00510568 214.407" stroke="white" stroke-opacity="0.28" stroke-width="2.6"/>
<path d="M2661.06 662.678C2271.93 677.053 1320.11 649.74 1123.34 425.484C1119.67 328.689 1175.1 115.837 1426.2 38.7847C1506.96 18.1798 1654.81 29.8987 1460.98 242.655C1218.7 508.601 385.462 632.49 0.00382371 206.977" stroke="white" stroke-opacity="0.32" stroke-width="2.6"/>
<path d="M2661.06 680.721C2271.93 695.096 1320.11 667.783 1123.34 443.527C1119.67 346.732 1175.1 133.88 1426.2 56.8277C1506.96 36.2227 1654.82 47.9417 1460.99 260.698C1218.7 526.644 385.463 650.533 0.00474454 225.02" stroke="white" stroke-opacity="0.19" stroke-width="1.3"/>
<path d="M2662.17 675.412C2273.04 689.788 1320.11 662.474 1123.34 438.218C1119.67 341.423 1175.1 128.571 1426.2 51.5191C1506.96 30.9141 1654.81 42.6331 1460.98 255.39C1218.7 521.335 385.46 645.224 0.00206486 219.712" stroke="white" stroke-opacity="0.22" stroke-width="1.3"/>
<path d="M2661.06 686.025C2271.93 700.401 1320.11 673.088 1123.34 448.831C1119.67 352.037 1175.1 139.185 1426.2 62.1324C1506.96 41.5274 1654.82 53.2464 1460.99 266.003C1218.7 531.948 385.464 655.838 0.00566537 230.325" stroke="white" stroke-opacity="0.12" stroke-width="1.3"/>
<path d="M2661.06 691.334C2271.93 705.709 1320.11 678.396 1123.34 454.14C1119.67 357.345 1175.1 144.493 1426.2 67.441C1506.96 46.836 1654.82 58.555 1460.98 271.311C1218.7 537.257 385.463 661.146 0.00474454 235.633" stroke="white" stroke-opacity="0.04" stroke-width="1.3"/>
<path d="M2536.69 693.451C2147.56 707.827 1320.11 680.513 1123.34 456.257C1119.67 359.463 1175.1 146.61 1426.2 69.5581C1506.96 48.9532 1654.82 60.6722 1460.98 273.429C1218.7 539.374 385.463 663.263 0.00472747 237.751" stroke="white" stroke-opacity="0.04" stroke-width="1.3"/>
<path d="M2660.69 696.639C2271.56 711.014 1320.11 683.701 1123.34 459.444C1119.67 362.65 1175.1 149.798 1426.2 72.7456C1506.96 52.1407 1654.81 63.8597 1460.98 276.616C1218.7 542.562 385.462 666.451 0.00321023 240.938" stroke="white" stroke-opacity="0.04" stroke-width="1.3"/>
<path d="M2661.06 654.186C2271.93 668.561 1320.11 641.248 1123.34 416.991C1119.67 320.197 1175.1 107.345 1426.2 30.2925C1506.96 9.68757 1654.81 21.4066 1460.98 234.163C1218.7 500.108 385.463 623.998 0.0044376 198.485" stroke="white" stroke-opacity="0.44" stroke-width="2.6"/>
<path d="M2660.79 643.576C2271.66 657.952 1320.11 630.638 1123.34 406.382C1119.67 309.588 1175.1 96.7355 1426.2 19.6831C1506.96 -0.9218 1654.81 10.7972 1460.98 223.554C1218.69 489.499 385.46 613.388 0.00216974 187.876" stroke="white" stroke-opacity="0.55" stroke-width="2.6"/>
<path d="M2660.79 632.576C2271.66 646.952 1320.11 619.638 1123.34 395.382C1119.67 298.588 1175.1 85.7355 1426.2 8.68314C1506.96 -11.9218 1654.81 -0.202817 1460.98 212.554C1218.69 478.499 385.46 602.388 0.00216974 176.876" stroke="white" stroke-opacity="0.66" stroke-width="2.6"/>
</g>
</svg>
