<svg width="47" height="21" viewBox="0 0 47 21" fill="none" xmlns="http://www.w3.org/2000/svg">
<path d="M40.0417 16.3775C38.445 16.3775 36.3786 16.3722 33.9679 16.3722H27.7949L28.2802 13.4375H23.1456L21.8672 20.4397H42.9325L43.7308 16.3669L43.4386 16.3775C43.0629 16.3933 42.1132 16.388 40.0365 16.3827L40.0417 16.3775Z" fill="#222223"/>
<path d="M41.5291 0.286519L41.2213 1.85661H36.1389L35.8467 0.286519H29.992L23.0938 12.2044H28.5205L31.6931 6.69332L32.7002 12.2044H38.0644L37.7356 10.4289H39.5359L38.5914 15.2392H43.7312L46.6637 0.28125H41.5239L41.5291 0.286519ZM40.282 6.6459H37.0312L36.8381 5.67118H40.4699L40.2768 6.6459H40.282Z" fill="#222223"/>
<path d="M5.21418 11.8013L6.89439 7.50725L7.12921 11.8013H10.9384L12.8482 7.51779L12.843 11.8013H17.3409L16.8557 4.55676H18.3793L19.1725 0.515625H3.29394L2.50601 4.55676H3.98272L0.679688 11.8013H5.21418Z" fill="#222223"/>
<path d="M1.31658 12.5234L0.523438 16.5646H16.3342L15.6245 20.6637H20.7591L22.2567 12.5234H1.31658Z" fill="#222223"/>
<path d="M22.3893 11.875L24.6174 0.515625H19.7281L17.5 11.875H22.3893Z" fill="#222223"/>
<path d="M9.08367 8.66522C9.55851 6.23632 8.5149 4.92441 6.10938 4.92441C8.5149 4.92441 10.0751 3.60722 10.5499 1.18359C10.0751 3.61249 11.1187 4.92441 13.5242 4.92441C11.1187 4.92441 9.55851 6.24159 9.08367 8.66522Z" fill="#00FF46"/>
</svg>
